<svg id="Layer_1" data-name="Layer 1" xmlns="http://www.w3.org/2000/svg" viewBox="0 0 80.21 77.65"><defs><style>.cls-1{fill:#130d0a;}.cls-2{fill:#f16423;}.cls-3{fill:#f2ae86;}.cls-4{fill:#f0ad86;}.cls-5{fill:#ee6523;}.cls-6{fill:#efab84;}.cls-7{fill:#ef3f24;}</style></defs><path class="cls-1" d="M9.13,58a9.31,9.31,0,0,1-6.46-2.16A7.9,7.9,0,0,1,3,43.72c.45-.35.53-.49.08-.93C-.5,39.22.63,32.78,5.3,30.46c.75-.37.89-.6.59-1.44a19.45,19.45,0,0,1-.6-10.12A22.36,22.36,0,0,1,12.88,5.6,21.79,21.79,0,0,1,27.39.07c8.69,0,17.38-.15,26.06.06A22.92,22.92,0,0,1,74.56,17a20.76,20.76,0,0,1-.42,12.38c-.24.69.21.78.63,1a8,8,0,0,1,3.87,10.2,5.05,5.05,0,0,1-1.52,2.18c-.41.33-.55.54,0,.93A7.2,7.2,0,0,1,80,51.31a7.76,7.76,0,0,1-5.82,6.34,22.5,22.5,0,0,1-3,.46c.76.63,1.38,1.17,2,1.67,1.81,1.39,3.45,2.9,4.1,5.22a7.49,7.49,0,0,1-2.06,7.8,7.81,7.81,0,0,1-8,2,6,6,0,0,1-2.8-1.66A7.87,7.87,0,0,1,58,77.57a8,8,0,0,1-7.24-3.22c-2.2-2.73-4.4-5.45-6.57-8.2a1.84,1.84,0,0,0-1.66-.83c-1.63.05-3.27,0-4.91,0a1.87,1.87,0,0,0-1.67.81c-2.11,2.7-4.26,5.36-6.42,8-3,3.74-7.6,4.56-11.31,2.08A6.34,6.34,0,0,1,16,73.65c-.19-.42-.29-.49-.72-.15A7.79,7.79,0,0,1,4.15,72a8,8,0,0,1,1.4-11.15C6.63,60,7.73,59.13,9.13,58ZM14.36,46.3c0,.65-.52.45-.86.45-1.59,0-3.19,0-4.78,0-1.84,0-3.11.82-3.52,2.13C4.49,51.14,5.93,53,8.63,53c3.73.08,7.46,0,11.2,0,.51.23,1,.47,1.1,1.11a4.58,4.58,0,0,0-3.4,1.54C16.29,57,15,58.19,13.74,59.46c-1.82,1.85-3.68,3.68-5.44,5.6a3,3,0,0,0-.17,4c1.17,1.53,3.31,1.55,4.9,0,2.66-2.61,5.32-5.23,8-7.87a2.2,2.2,0,0,1,1.73-.76c1.28,0,2.56,0,3.84-.06.56.77-.29,1-.6,1.37-1.75,2-3.62,3.84-5.35,5.83a3,3,0,0,0,.22,4.37,3.07,3.07,0,0,0,4.47-.39c2.94-3.61,5.81-7.28,8.71-10.92a4.6,4.6,0,0,1,1.61-.2h9a4.6,4.6,0,0,1,1.61.2q4.34,5.48,8.7,10.94a3.13,3.13,0,0,0,.88.74,3.18,3.18,0,0,0,3.92-.71,3.13,3.13,0,0,0-.33-4.33c-1.79-1.94-3.6-3.87-5.4-5.8-.29-.3-.69-.55-.53-1.08,1.36,0,2.72.07,4.08,0a2.11,2.11,0,0,1,1.65.68q3.81,3.86,7.67,7.67a6.79,6.79,0,0,0,1.26,1,3.07,3.07,0,0,0,3.75-.55,3,3,0,0,0,.33-3.75,8.82,8.82,0,0,0-1-1.16c-2.88-2.9-5.79-5.76-8.66-8.67a4.4,4.4,0,0,0-3.28-1.5c.05-.67.51-.93,1.07-1.1l11.28,0a2.28,2.28,0,0,0,.53-.16,3,3,0,0,0,3-2.8,3.16,3.16,0,0,0-2.63-3.2c-1.17-.18-2.33-.06-3.49-.13a15.62,15.62,0,0,1-3.41-.18L68.56,44c1.49-1.31,3-2.58,4.46-3.93,1.8-1.67,1.58-4-.41-5.18a3.4,3.4,0,0,0-4,.8c-1.47,1.38-2.92,2.79-4.38,4.19a9.58,9.58,0,0,1-1.33-2.63A17.49,17.49,0,0,0,70.28,22.8a4.05,4.05,0,0,0,0-.69C69.59,14.72,66,9.36,59.1,6.33A15.84,15.84,0,0,0,51.61,5H42.49c2.2,2,4.48,3.63,6.72,5.36.74.58,1.68.94,2.15,1.84-2.06,0-4.12,0-6.18,0-.66,0-.89.2-.81.89a6.13,6.13,0,0,0,1.24,3.09c1.84,2.47,4.51,3.46,7.35,4.11a32.72,32.72,0,0,0,7.19.7c.9,0,1.83.07,2.27,1.06s-.16,1.78-.8,2.49c-.21.23-.44.45-.65.67-1.85,1.95-3.69,3.9-5.54,5.84a2.52,2.52,0,0,1-1.24-.23,14.87,14.87,0,0,0-4.39-1.13c-1.26-.11-1.78-.58-1.75-1.94a2.92,2.92,0,0,0-3-3.16,3,3,0,0,0-3.07,3c-.16,1.85-.16,1.85-2.1,1.85a.87.87,0,0,0-.23,0c-1.07.17-1.5-.25-1.37-1.33A3.45,3.45,0,0,0,38.07,27,2.87,2.87,0,0,0,35,24.66a2.92,2.92,0,0,0-2.83,2.74,6.46,6.46,0,0,0-.07,1.16c.07.69-.2.94-.89,1A19.86,19.86,0,0,0,25.69,31a3.41,3.41,0,0,1-.92.12c-.69-.73-1.39-1.46-2.08-2.2-1.44-1.52-2.89-3-4.32-4.57A1.86,1.86,0,0,1,19.78,21c.58,0,1.17,0,1.75,0,3.51-.16,7-.53,10.14-2.25a8,8,0,0,0,4.07-5.12c.31-1.08,0-1.4-1.17-1.4a32.23,32.23,0,0,1-5.81-.12.09.09,0,0,0,0-.11l9-6.7L37.73,5H28.62c-.73-.36-1.45,0-2.17.08A17.61,17.61,0,0,0,10.59,18a12,12,0,0,0-.67,5.35,17.31,17.31,0,0,0,7.33,13.9A7.8,7.8,0,0,1,16,40c-1.58-1.55-3.1-3.16-4.75-4.63a3.14,3.14,0,0,0-4.42.1A3,3,0,0,0,7.07,40C9.45,42.13,11.92,44.19,14.36,46.3Z"/><path class="cls-2" d="M60.37,53c-.56.17-1,.43-1.07,1.1a53.56,53.56,0,0,0-5.86,5.71,2.81,2.81,0,0,1-2.12.7c-1.7,0-3.4,0-5.1,0a4.6,4.6,0,0,0-1.61-.2h-9a4.6,4.6,0,0,0-1.61.2c-1.57,0-3.15-.1-4.73,0a3.4,3.4,0,0,1-2.73-.91,52,52,0,0,0-5.61-5.5c-.09-.64-.59-.88-1.1-1.11A28.65,28.65,0,0,0,16,49a3,3,0,0,1-1.2-2.7A30.5,30.5,0,0,1,16,40a7.8,7.8,0,0,0,1.27-2.76A43.86,43.86,0,0,1,21,33.48c1.21-.91,2.64-1.43,3.82-2.35a3.41,3.41,0,0,0,.92-.12A19.86,19.86,0,0,1,31.2,29.6c.69-.1,1-.35.89-1a6.46,6.46,0,0,1,.07-1.16A2.92,2.92,0,0,1,35,24.66,2.87,2.87,0,0,1,38.07,27a3.45,3.45,0,0,1,.19,1.26c-.13,1.08.3,1.5,1.37,1.33a.87.87,0,0,1,.23,0c1.94,0,1.94,0,2.1-1.85a3,3,0,0,1,3.07-3,2.92,2.92,0,0,1,3,3.16c0,1.36.49,1.83,1.75,1.94a14.87,14.87,0,0,1,4.39,1.13,2.52,2.52,0,0,0,1.24.23,2.16,2.16,0,0,0,.44.37,17.2,17.2,0,0,1,7,5.78,9.58,9.58,0,0,0,1.33,2.63,31.23,31.23,0,0,1,1.24,6.43V47.7c-1.5,1.67-3.29,3-4.65,4.85C60.53,52.59,60.47,52.82,60.37,53ZM32.73,37a5.56,5.56,0,0,0-5.67,5.53c.13,3.3,2.21,5.6,5.66,5.63a5.38,5.38,0,0,0,5.54-5.46C38.2,39.3,36,37,32.73,37ZM48.07,51.09a4.21,4.21,0,0,0-4.21-4.33,4.41,4.41,0,0,0-4.45,4.31,4.17,4.17,0,0,0,4.41,4.34A4.09,4.09,0,0,0,48.07,51.09ZM55.55,45a3.06,3.06,0,0,0-3-3.12,3.4,3.4,0,0,0-3.26,3,3.35,3.35,0,0,0,3,3.27A3.22,3.22,0,0,0,55.55,45Z"/><path class="cls-3" d="M24.77,31.13c-1.18.92-2.61,1.44-3.82,2.35a43.86,43.86,0,0,0-3.7,3.77,17.31,17.31,0,0,1-7.33-13.9c.47-.89,1-1.77,1.4-2.68a11,11,0,0,1,8.3-6.62,32.11,32.11,0,0,1,7.19-.42c1.19,0,2-.17,2-1.51a32.23,32.23,0,0,0,5.81.12c1.13,0,1.48.32,1.17,1.4a8,8,0,0,1-4.07,5.12C28.5,20.48,25,20.85,21.53,21c-.58,0-1.17,0-1.75,0a1.86,1.86,0,0,0-1.41,3.33c1.43,1.53,2.88,3.05,4.32,4.57C23.38,29.67,24.08,30.4,24.77,31.13Z"/><path class="cls-3" d="M62.87,37.26a17.2,17.2,0,0,0-7-5.78,2.16,2.16,0,0,1-.44-.37c1.85-1.94,3.69-3.89,5.54-5.84.21-.22.44-.44.65-.67.64-.71,1.25-1.44.8-2.49s-1.37-1.06-2.27-1.06a32.72,32.72,0,0,1-7.19-.7c-2.84-.65-5.51-1.64-7.35-4.11a6.13,6.13,0,0,1-1.24-3.09c-.08-.69.15-.89.81-.89,2.06,0,4.12,0,6.18,0l.22.17c0,1,.41,1.22,1.35,1.22,2.06,0,4.12,0,6.17.23,4.49.4,8,2.23,9.42,6.85a3.38,3.38,0,0,0,1.76,2.09A17.49,17.49,0,0,1,62.87,37.26Z"/><path class="cls-4" d="M60.8,52.55c1.36-1.8,3.15-3.18,4.65-4.85.84-.46,0-.92,0-1.38a31.23,31.23,0,0,0-1.24-6.43c1.46-1.4,2.91-2.81,4.38-4.19a3.4,3.4,0,0,1,4-.8c2,1.14,2.21,3.51.41,5.18-1.45,1.35-3,2.62-4.46,3.93l-2.9,2.57a15.62,15.62,0,0,0,3.41.18c1.16.07,2.32,0,3.49.13a3.16,3.16,0,0,1,2.63,3.2,3,3,0,0,1-3,2.8c-.35-.46-.85-.27-1.29-.28Z"/><path class="cls-5" d="M28.76,12.12c0,1.34-.76,1.56-2,1.51a32.11,32.11,0,0,0-7.19.42,11,11,0,0,0-8.3,6.62c-.43.91-.93,1.79-1.4,2.68A12,12,0,0,1,10.59,18,17.61,17.61,0,0,1,26.45,5.12c.72,0,1.44-.44,2.17-.08,0,.9-.06,1.79,0,2.69.07,1.42-.24,2.87.18,4.28A.09.09,0,0,1,28.76,12.12Z"/><path class="cls-5" d="M70.28,22.8a3.38,3.38,0,0,1-1.76-2.09c-1.44-4.62-4.93-6.45-9.42-6.85-2.05-.18-4.11-.23-6.17-.23-.94,0-1.4-.25-1.35-1.22l0-7.37A15.84,15.84,0,0,1,59.1,6.33c6.85,3,10.49,8.39,11.22,15.78A4.05,4.05,0,0,1,70.28,22.8Z"/><path class="cls-4" d="M20.93,54.13a52,52,0,0,1,5.61,5.5v.69c-1.28,0-2.56.09-3.84.06a2.2,2.2,0,0,0-1.73.76c-2.63,2.64-5.29,5.26-8,7.87-1.59,1.55-3.73,1.53-4.9,0a3,3,0,0,1,.17-4c1.76-1.92,3.62-3.75,5.44-5.6,1.26-1.27,2.55-2.5,3.79-3.79A4.58,4.58,0,0,1,20.93,54.13Z"/><path class="cls-3" d="M53.44,59.83a53.56,53.56,0,0,1,5.86-5.71,4.4,4.4,0,0,1,3.28,1.5c2.87,2.91,5.78,5.77,8.66,8.67a8.82,8.82,0,0,1,1,1.16,3,3,0,0,1-.33,3.75,3.07,3.07,0,0,1-3.75.55,6.79,6.79,0,0,1-1.26-1Q63,64.91,59.19,61.06a2.11,2.11,0,0,0-1.65-.68c-1.36,0-2.72,0-4.08,0Z"/><path class="cls-6" d="M53.44,59.83l0,.51c-.16.53.24.78.53,1.08,1.8,1.93,3.61,3.86,5.4,5.8a3.13,3.13,0,0,1,.33,4.33,3.18,3.18,0,0,1-3.92.71,3.13,3.13,0,0,1-.88-.74q-4.37-5.46-8.7-10.94c1.7,0,3.4-.08,5.1,0A2.81,2.81,0,0,0,53.44,59.83Z"/><path class="cls-6" d="M26.55,60.32v-.69a3.4,3.4,0,0,0,2.73.91c1.58-.06,3.16,0,4.73,0-2.9,3.64-5.77,7.31-8.71,10.92a3.07,3.07,0,0,1-4.47.39,3,3,0,0,1-.22-4.37c1.73-2,3.6-3.86,5.35-5.83C26.26,61.34,27.11,61.09,26.55,60.32Z"/><path class="cls-6" d="M14.79,46.3A3,3,0,0,0,16,49a28.65,28.65,0,0,1,3.84,4c-3.74,0-7.47.09-11.2,0C5.93,53,4.49,51.14,5.2,48.9c.41-1.31,1.68-2.1,3.52-2.13,1.59,0,3.19,0,4.78,0,.34,0,.84.2.86-.45Z"/><path class="cls-4" d="M14.79,46.3h-.43C11.92,44.19,9.45,42.13,7.07,40a3,3,0,0,1-.26-4.47,3.14,3.14,0,0,1,4.42-.1C12.88,36.85,14.4,38.46,16,40A30.5,30.5,0,0,0,14.79,46.3Z"/><path class="cls-6" d="M51.61,5l0,7.37-.22-.17c-.47-.9-1.41-1.26-2.15-1.84C47,8.67,44.69,7,42.49,5Z"/><path class="cls-6" d="M28.79,12c-.42-1.41-.11-2.86-.18-4.28-.05-.9,0-1.79,0-2.69h9.11l.08.27Z"/><path class="cls-6" d="M60.8,52.55l10.09.06c.44,0,.94-.18,1.29.28a2.28,2.28,0,0,1-.53.16L60.37,53C60.47,52.82,60.53,52.59,60.8,52.55Z"/><path class="cls-7" d="M32.73,37c3.26,0,5.47,2.35,5.53,5.7a5.38,5.38,0,0,1-5.54,5.46c-3.45,0-5.53-2.33-5.66-5.63A5.56,5.56,0,0,1,32.73,37Z"/><path class="cls-7" d="M48.07,51.09a4.09,4.09,0,0,1-4.25,4.32,4.17,4.17,0,0,1-4.41-4.34,4.41,4.41,0,0,1,4.45-4.31A4.21,4.21,0,0,1,48.07,51.09Z"/><path class="cls-7" d="M55.55,45a3.22,3.22,0,0,1-3.29,3.16,3.35,3.35,0,0,1-3-3.27,3.4,3.4,0,0,1,3.26-3A3.06,3.06,0,0,1,55.55,45Z"/><path class="cls-6" d="M65.44,46.32c.06.46.85.92,0,1.38C65.45,47.24,65.44,46.78,65.44,46.32Z"/></svg>