<svg id="Layer_1" data-name="Layer 1" xmlns="http://www.w3.org/2000/svg" viewBox="0 0 80.32 80.16"><defs><style>.cls-1{fill:#0e0d0d;}.cls-2{fill:#fbfbfc;}.cls-3{fill:#4c565b;}.cls-4{fill:#e52129;}.cls-5{fill:#25baeb;}.cls-6{fill:#ee6523;}.cls-7{fill:#aaa9a8;}.cls-8{fill:#fcc53e;}.cls-9{fill:#cbcbcb;}</style></defs><path class="cls-1" d="M20.61,24.71c2.06,0,4.13,0,6.19,0a2.46,2.46,0,0,0,1.94-.82c3.85-3.8,7.52-7.8,11.65-11.31A53.72,53.72,0,0,1,57.2,3C64.4.41,71.85-.15,79.41,0c.51,0,.89.06.9.74.1,7-.33,13.84-2.41,20.54a55.49,55.49,0,0,1-15.3,24c-2.14,2-4.18,4.19-6.29,6.27a2.05,2.05,0,0,0-.68,1.63c0,4.25,0,8.49,0,12.74A2.09,2.09,0,0,1,55,67.63Q49.2,73.27,43.43,79c-.67.67-1,.6-1.67,0-2.42-2.43-4.91-4.79-7.33-7.2a1.42,1.42,0,0,0-1.75-.39c-2,.75-4,1.4-6.05,2.09a5,5,0,0,0-1.6.94c-4.05,3.5-8.9,4.94-14.11,5.49-3.31.35-6.62.23-9.93.26-.52,0-1,.08-1-.73,0-5-.15-10,1.17-15A22.1,22.1,0,0,1,5.6,55.56C6.67,54.32,7,52.79,7.54,51.37,8,50.22,8.29,49,8.78,47.85a1.76,1.76,0,0,0-.52-2.22c-2.42-2.37-4.73-4.85-7.13-7.25-.57-.57-.57-.89,0-1.47C5,33.08,8.75,29.21,12.53,25.34a1.89,1.89,0,0,1,1.53-.64C16.24,24.73,18.42,24.71,20.61,24.71ZM23.3,68.6a1.9,1.9,0,0,0,1.86,0c3.23-1.11,6.46-2.18,9.69-3.27a1.93,1.93,0,0,1,.92.69c2,2,4.08,4,6.07,6,.6.61.95.65,1.58,0q3.18-3.17,6.47-6.23A2.29,2.29,0,0,0,50.67,64c0-4.13,0-8.25,0-12.38A3.46,3.46,0,0,1,50.9,50c4.43-4.32,8.9-8.61,13-13.25a37.25,37.25,0,0,0,6.56-10.41c.32-.74.63-1.49,1-2.22A43.93,43.93,0,0,0,75.24,6c0-.7-.19-.94-.92-.94A45.6,45.6,0,0,0,54,9.82a39.62,39.62,0,0,0-10.74,6.84c-4.56,4-8.67,8.45-12.9,12.78a3.64,3.64,0,0,1-1.6.22H16.22a1.8,1.8,0,0,0-1.48.49Q11.44,33.62,8.07,37c-.54.54-.42.83.06,1.3,1.95,1.9,3.85,3.84,5.78,5.77a4.24,4.24,0,0,1,1,1.25c-1.09,3.27-2.16,6.54-3.27,9.79A2,2,0,0,0,11.69,57a11.46,11.46,0,0,0-3.94,4.07C5.55,65.25,5,69.77,5,74.41c0,.69.27.86.91.81,2.05-.15,4.11-.13,6.16-.47C16.57,74,20.6,72.54,23.3,68.6Z"/><path class="cls-2" d="M70.46,26.33A37.25,37.25,0,0,1,63.9,36.74c-4.1,4.64-8.57,8.93-13,13.25-.59-.91-.92-.05-1.22.24Q42.84,56.74,36,63.29c-.33.32-.6.73-1.13.76l-8.33-8.39a2.94,2.94,0,0,0,1.71-.91Q34.13,48.89,40,43c1.06-1.07,1.13-2,.29-3a1.9,1.9,0,0,0-2.87.16c-3.84,3.73-7.64,7.52-11.47,11.27a5.88,5.88,0,0,0-1.45,2.08q-4.25-4-8.28-8.24a34.35,34.35,0,0,1,4-4.38c3.31-3.5,6.69-6.92,10-10.39.3-.31,1-.65.12-1.11,4.23-4.33,8.34-8.79,12.9-12.78A39.62,39.62,0,0,1,54,9.82c0,.44.38.67.65.94q7.45,7.47,14.94,14.94C69.8,26,70,26.38,70.46,26.33Zm-12.5,4c.26-4.42-3.7-8.08-8-8.11a8.11,8.11,0,0,0-7.94,8,8,8,0,0,0,7.94,8.06C54.4,38.26,58.14,34.63,58,30.34Z"/><path class="cls-3" d="M26.57,55.66q4.17,4.2,8.33,8.39c-.17.42-.37.83,0,1.27-3.23,1.09-6.46,2.16-9.69,3.27a1.9,1.9,0,0,1-1.86,0,11,11,0,0,0-2.49-2.52,87.6,87.6,0,0,0-6.75-6.74A9.58,9.58,0,0,0,11.69,57a2,2,0,0,1-.07-1.88c1.11-3.25,2.18-6.52,3.27-9.79a1.16,1.16,0,0,0,1.31,0q4,4.22,8.28,8.24A2.57,2.57,0,0,0,26.57,55.66Z"/><path class="cls-4" d="M70.46,26.33c-.49.05-.66-.38-.91-.63q-7.48-7.45-14.94-14.94c-.27-.27-.62-.5-.65-.94A45.6,45.6,0,0,1,74.32,5.07c.73,0,.92.24.92.94a43.93,43.93,0,0,1-3.82,18.1C71.09,24.84,70.78,25.59,70.46,26.33Z"/><path class="cls-5" d="M34.85,65.32c-.32-.44-.12-.85,0-1.27.53,0,.8-.44,1.13-.76q6.82-6.54,13.65-13.06c.3-.29.63-1.15,1.22-.24a3.46,3.46,0,0,0-.25,1.59c0,4.13,0,8.25,0,12.38a2.29,2.29,0,0,1-.78,1.83Q46.61,68.87,43.42,72c-.63.63-1,.59-1.58,0-2-2-4-4-6.07-6A1.93,1.93,0,0,0,34.85,65.32Z"/><path class="cls-5" d="M16.2,45.32a1.16,1.16,0,0,1-1.31,0,4.24,4.24,0,0,0-1-1.25c-1.93-1.93-3.83-3.87-5.78-5.77-.48-.47-.6-.76-.06-1.3q3.38-3.39,6.67-6.86a1.8,1.8,0,0,1,1.48-.49h12.5a3.64,3.64,0,0,0,1.6-.22c.87.46.18.8-.12,1.11-3.34,3.47-6.72,6.89-10,10.39A34.35,34.35,0,0,0,16.2,45.32Z"/><path class="cls-6" d="M20.81,66.08A11,11,0,0,1,23.3,68.6c-2.7,3.94-6.73,5.42-11.2,6.15-2,.34-4.11.32-6.16.47-.64,0-.91-.12-.91-.81,0-4.64.52-9.16,2.72-13.34A11.46,11.46,0,0,1,11.69,57a9.58,9.58,0,0,1,2.37,2.34C11.14,62,10.34,65.45,10,69.15c-.11,1.07.36,1.26,1.26,1.14a20.67,20.67,0,0,0,6.39-1.63A6.31,6.31,0,0,0,20.81,66.08Z"/><path class="cls-7" d="M58,30.34c.18,4.29-3.56,7.92-8,8A8,8,0,0,1,42,30.24a8.11,8.11,0,0,1,7.94-8C54.26,22.26,58.22,25.92,58,30.34Zm-8-5.59a5.48,5.48,0,0,0-5.57,5.49c.13,3.35,2.1,5.57,5.57,5.61a5.46,5.46,0,0,0,5.6-5.59A5.69,5.69,0,0,0,50,24.75Z"/><path class="cls-5" d="M26.57,55.66a2.57,2.57,0,0,1-2.09-2.1,5.88,5.88,0,0,1,1.45-2.08c3.83-3.75,7.63-7.54,11.47-11.27a1.9,1.9,0,0,1,2.87-.16C41.11,41,41,42,40,43q-5.83,5.86-11.7,11.72A2.94,2.94,0,0,1,26.57,55.66Z"/><path class="cls-8" d="M20.81,66.08a6.31,6.31,0,0,1-3.2,2.58,20.67,20.67,0,0,1-6.39,1.63c-.9.12-1.37-.07-1.26-1.14.38-3.7,1.18-7.19,4.1-9.81A87.6,87.6,0,0,1,20.81,66.08Z"/><path class="cls-9" d="M50,24.75a5.69,5.69,0,0,1,5.6,5.51A5.46,5.46,0,0,1,50,35.85c-3.47,0-5.44-2.26-5.57-5.61A5.48,5.48,0,0,1,50,24.75Z"/></svg>