<?xml version="1.0" standalone="no"?>
<!DOCTYPE svg PUBLIC "-//W3C//DTD SVG 20010904//EN"
 "http://www.w3.org/TR/2001/REC-SVG-20010904/DTD/svg10.dtd">
<svg version="1.0" xmlns="http://www.w3.org/2000/svg"
 width="700.000000pt" height="700.000000pt" viewBox="0 0 700.000000 700.000000"
 preserveAspectRatio="xMidYMid meet">
<metadata>
Created by potrace 1.11, written by Peter Selinger 2001-2013
</metadata>
<g transform="translate(0.000000,700.000000) scale(0.100000,-0.100000)"
fill="#000000" stroke="none">
<path d="M3056 4943 c-1 -1 -44 -3 -96 -4 -82 -1 -253 -19 -315 -33 -266 -57
-504 -161 -718 -314 -103 -74 -158 -124 -375 -339 l-183 -183 -262 0 -262 0
-220 -220 -220 -220 155 -155 155 -155 -49 -146 c-40 -121 -56 -156 -99 -212
-74 -99 -134 -239 -153 -362 -3 -19 -8 -46 -11 -60 -3 -14 -7 -109 -10 -211
l-5 -187 153 3 c186 3 271 11 365 35 104 27 231 91 326 163 22 17 96 48 185
77 l148 49 154 -155 155 -155 218 218 218 218 0 263 0 264 173 172 c219 220
265 269 330 358 183 249 306 539 352 828 9 52 18 177 22 278 l6 182 -34 1
c-19 1 -49 2 -67 3 -19 0 -35 0 -36 -1z m-49 -290 c-3 -59 -8 -117 -10 -128
-3 -11 -8 -40 -13 -65 -4 -25 -8 -47 -9 -50 -1 -3 -5 -21 -9 -40 -12 -55 -64
-212 -89 -269 l-23 -52 -274 276 c-151 152 -276 278 -278 279 -6 7 148 66 234
91 114 32 286 60 393 64 l84 2 -6 -108z m-223 -731 c-28 -49 -102 -159 -119
-178 -5 -6 -32 -38 -59 -71 -27 -33 -261 -272 -520 -532 l-471 -472 -345 345
c-189 189 -346 348 -347 353 -2 5 227 238 509 519 518 515 574 564 739 659
l41 23 300 -300 299 -300 -27 -46z m-1701 -262 l-228 -230 -100 100 -100 100
130 130 130 130 198 0 197 0 -227 -230z m1056 -792 l-1 -202 -130 -129 -130
-130 -100 100 -100 101 228 230 c126 127 230 231 232 231 1 1 2 -90 1 -201z
m-1294 42 c38 -39 39 -51 4 -80 -14 -12 -57 -89 -73 -130 -22 -59 -45 -185
-37 -199 5 -8 24 -8 67 -1 101 19 182 50 245 96 l60 45 28 -23 c15 -13 36 -34
45 -46 18 -24 18 -24 -37 -77 -117 -113 -344 -184 -563 -176 -18 1 -21 6 -18
39 2 20 5 69 8 107 6 94 40 225 79 304 29 58 128 181 146 181 4 0 24 -18 46
-40z"/>
<path d="M2062 4142 c-108 -34 -171 -116 -180 -232 -4 -57 -1 -76 20 -121 30
-64 65 -101 123 -129 98 -48 205 -33 288 40 134 118 113 324 -43 422 -51 32
-142 40 -208 20z m141 -86 c38 -16 82 -61 95 -97 27 -70 -3 -166 -66 -213 -63
-48 -183 -23 -237 49 -24 31 -29 46 -29 100 -1 56 2 67 30 102 54 68 133 91
207 59z"/>
<path d="M1492 3307 c-213 -214 -232 -236 -224 -258 6 -15 18 -25 33 -27 20
-2 67 40 254 228 127 127 231 234 233 240 2 5 -2 18 -8 29 -24 46 -49 28 -288
-212z"/>
<path d="M4699 4849 c-224 -18 -438 -143 -575 -335 -137 -192 -177 -455 -106
-690 9 -30 8 -32 -27 -47 -80 -36 -139 -119 -148 -211 -7 -67 10 -125 52 -181
19 -25 35 -47 35 -50 0 -3 -17 -21 -39 -40 -132 -119 -100 -344 61 -426 44
-22 66 -27 132 -28 l49 -1 -94 -95 c-52 -52 -105 -116 -118 -141 -90 -176 59
-390 258 -371 57 5 125 32 154 62 14 13 18 11 36 -19 29 -46 69 -85 113 -107
44 -22 138 -30 188 -15 37 10 120 62 120 74 0 4 15 23 33 42 18 19 48 55 67
80 19 25 39 50 45 56 5 7 39 48 74 93 l65 81 135 0 136 0 65 -83 c196 -248
241 -297 292 -323 67 -34 157 -36 222 -4 52 25 114 85 122 118 4 12 8 22 11
22 2 0 23 -13 46 -29 120 -82 285 -54 364 63 41 60 53 103 48 172 -6 79 -29
118 -132 223 -51 52 -91 97 -88 99 2 3 28 6 57 7 232 8 341 283 177 447 l-49
49 25 27 c94 101 90 267 -8 359 -25 24 -70 54 -105 69 -2 1 4 28 12 60 24 95
26 114 27 224 0 129 -24 228 -81 339 -114 219 -316 370 -565 422 -64 13 -940
20 -1086 8z m411 -169 c0 -3 -74 -61 -165 -129 -91 -68 -165 -124 -165 -126 0
-1 59 -2 130 -1 81 1 130 -3 130 -9 0 -30 -23 -85 -50 -117 -69 -83 -213 -132
-420 -143 -127 -7 -158 -20 -171 -69 -12 -43 3 -67 103 -171 51 -53 94 -100
96 -105 1 -4 -26 -26 -62 -49 -35 -23 -88 -66 -117 -96 -51 -52 -54 -54 -73
-37 -30 27 -106 133 -123 172 -79 183 -80 364 -5 530 57 126 180 245 309 301
52 23 51 22 139 41 59 13 444 19 444 8z m630 -4 c143 -20 290 -103 383 -215
58 -70 116 -196 131 -281 32 -187 -22 -378 -145 -512 l-48 -53 -58 57 c-32 31
-86 74 -120 96 l-62 40 42 44 c165 176 167 178 167 213 0 21 -9 44 -23 61 -22
25 -29 27 -122 30 -219 8 -367 54 -442 135 -24 27 -64 109 -57 120 2 4 56 7
119 6 63 0 117 2 120 5 3 3 -69 61 -160 129 l-166 124 113 5 c140 6 269 5 328
-4z m-645 -721 c14 -13 25 -32 26 -42 0 -10 2 -38 2 -63 l2 -45 75 0 c41 -1
80 1 87 3 6 2 11 24 11 51 1 86 35 128 95 117 12 -3 28 -5 35 -5 20 -1 42 -64
42 -120 0 -47 1 -49 28 -48 148 3 372 -102 460 -216 43 -55 95 -160 106 -212
12 -62 18 -101 21 -141 l2 -42 -218 -218 -219 -219 -432 -1 -433 0 -223 220
-223 221 4 60 c12 149 71 281 168 375 95 92 271 167 402 172 20 1 37 6 38 12
0 6 2 31 3 56 3 62 13 85 39 98 38 18 76 14 102 -13z m-942 -337 c12 -6 50
-38 84 -72 l62 -61 -19 -70 c-11 -38 -21 -82 -22 -98 -1 -16 -5 -30 -8 -32
-11 -7 -208 200 -219 228 -29 75 50 143 122 105z m2201 1 c13 -7 30 -24 36
-40 24 -56 7 -87 -110 -204 -104 -104 -110 -108 -110 -80 0 30 -10 76 -32 148
-11 38 -11 38 43 94 86 89 121 105 173 82z m-2131 -428 c19 -1 27 -6 27 -18 0
-10 30 -48 67 -85 l67 -68 -172 0 -173 0 -24 26 c-30 33 -33 82 -6 115 15 19
32 25 83 29 34 3 72 4 83 3 11 -1 32 -2 48 -2z m2168 -12 c31 -16 49 -66 37
-101 -19 -53 -36 -58 -222 -58 l-170 0 67 68 c37 37 67 75 67 84 0 11 10 18
28 20 52 6 173 -2 193 -13z m-1819 -339 l83 -80 -52 0 -51 0 -175 -175 c-163
-162 -178 -175 -212 -175 -47 0 -85 39 -85 87 0 30 18 52 194 228 106 107 199
195 205 195 6 0 48 -36 93 -80z m1578 -115 c194 -194 194 -195 193 -236 -3
-71 -67 -108 -123 -72 -14 9 -98 89 -187 178 l-163 162 -45 -2 c-25 -1 -45 1
-45 4 0 10 154 161 165 161 6 0 98 -88 205 -195z m-1253 -58 c22 -2 22 -2 -6
-37 -16 -19 -75 -91 -131 -160 -101 -124 -129 -149 -162 -150 -52 -1 -97 54
-84 103 3 13 48 75 100 138 l94 114 83 -3 c46 -1 94 -4 106 -5z m902 -99 c52
-61 97 -125 102 -140 18 -64 -34 -118 -99 -103 -29 6 -44 19 -94 87 -15 20
-33 42 -41 50 -21 22 -157 197 -157 202 0 3 42 7 93 9 50 1 95 4 98 5 3 1 47
-48 98 -110z"/>
<path d="M4853 3515 c-92 -56 -109 -187 -35 -267 76 -82 213 -68 273 28 95
154 -82 332 -238 239z"/>
<path d="M5608 3354 c-101 -54 -21 -202 81 -150 29 16 47 47 43 76 -7 47 -15
61 -42 75 -36 18 -47 18 -82 -1z"/>
<path d="M5285 3180 c-32 -13 -66 -55 -74 -92 -28 -125 127 -209 217 -117 99
101 -12 264 -143 209z"/>
</g>
</svg>
